<?xml version="1.0" standalone="no"?>
<!DOCTYPE svg PUBLIC "-//W3C//DTD SVG 20010904//EN"
 "http://www.w3.org/TR/2001/REC-SVG-20010904/DTD/svg10.dtd">
<svg version="1.0" xmlns="http://www.w3.org/2000/svg"
 width="1000.000000pt" height="1000.000000pt" viewBox="0 0 1000.000000 1000.000000"
 preserveAspectRatio="xMidYMid meet">
<metadata>
Created by potrace 1.14, written by Peter Selinger 2001-2017
</metadata>
<g transform="translate(0.000000,1000.000000) scale(0.100000,-0.100000)"
fill="#000000" stroke="none">
<path d="M0 5000 l0 -5000 5000 0 5000 0 0 5000 0 5000 -5000 0 -5000 0 0
-5000z m7441 4470 c378 -37 751 -159 1029 -336 607 -387 982 -959 1087 -1654
23 -160 23 -483 -1 -640 -103 -667 -466 -1232 -1036 -1612 -191 -127 -472
-250 -704 -309 -74 -19 -413 -186 -911 -449 -77 -41 -2402 -1248 -2885 -1497
-91 -47 -205 -107 -255 -133 -378 -199 -442 -229 -453 -218 -9 9 -12 4 -12
-20 0 -25 -11 -45 -46 -82 -26 -28 -50 -50 -54 -50 -4 0 -209 205 -455 455
l-448 456 38 39 c40 41 82 60 124 57 20 -2 41 29 175 258 274 467 814 1390
1091 1865 150 256 373 638 497 850 790 1350 755 1288 799 1425 188 590 618
1086 1183 1365 380 187 825 270 1237 230z m-4399 -7164 c-37 -37 -79 -68 -117
-86 -122 -57 -370 -120 -468 -120 -47 0 11 55 -1002 -951 -630 -626 -614 -613
-712 -611 -24 0 -63 10 -87 21 -50 25 -263 238 -291 291 -24 46 -24 134 0 180
10 19 363 379 786 800 l768 765 7 65 c12 134 71 344 126 455 11 22 48 68 81
103 l62 62 451 -457 452 -458 -56 -59z"/>
<path d="M7065 8674 c-265 -59 -466 -247 -537 -500 -20 -72 -22 -99 -20 -317
2 -210 0 -249 -19 -340 -25 -118 -27 -220 -5 -307 22 -85 48 -130 118 -208 75
-82 92 -118 124 -269 20 -92 39 -145 85 -241 90 -185 107 -302 65 -459 -57
-211 -276 -387 -563 -453 -122 -28 -163 -47 -163 -75 0 -100 467 -294 816
-340 132 -17 407 -20 539 -5 216 25 451 92 640 184 175 84 216 139 132 176
-23 10 -65 24 -92 30 -289 63 -520 240 -586 449 -15 48 -21 93 -21 166 -1 137
6 160 109 355 27 51 49 113 68 195 34 148 56 193 139 283 77 84 91 109 117
209 24 97 24 176 -1 298 -23 111 -25 178 -9 346 18 191 -14 362 -93 497 -53
91 -170 201 -263 249 -134 69 -199 85 -365 89 -107 3 -163 0 -215 -12z"/>
<path d="M1675 2167 c-64 -32 -297 -265 -320 -321 -22 -53 -21 -135 3 -188 24
-56 90 -114 144 -129 51 -13 134 -7 175 14 16 9 90 75 164 149 119 116 138
140 154 187 49 151 -51 300 -209 309 -49 2 -71 -2 -111 -21z m-19 -288 c91
-55 82 -198 -16 -250 -96 -52 -210 19 -210 130 0 118 122 183 226 120z"/>
</g>
</svg>
